<svg width="256" height="256" viewBox="0 0 128 128" xmlns="http://www.w3.org/2000/svg">
  <defs>
    <linearGradient id="webGrad" x1="0%" y1="0%" x2="100%" y2="100%">
      <stop offset="0%" stop-color="#38BDF8" />
      <stop offset="100%" stop-color="#1D4ED8" />
    </linearGradient>

    <linearGradient id="sidebarGrad" x1="0%" y1="0%" x2="0%" y2="100%">
      <stop offset="0%" stop-color="#334155" />
      <stop offset="100%" stop-color="#0F172A" />
    </linearGradient>

    <filter id="shadow" x="-50%" y="-20%" width="200%" height="140%">
      <feDropShadow dx="-4" dy="0" stdDeviation="4" flood-color="#000000" flood-opacity="0.6"/>
    </filter>
  </defs>

  <rect x="0" y="0" width="128" height="128" rx="28" fill="#FFFFFF" />

  <circle cx="57" cy="64" r="38" fill="url(#webGrad)" />
  <circle cx="57" cy="64" r="36" fill="none" stroke="#FFFFFF" stroke-opacity="0.3" stroke-width="1.5" />
  
  <ellipse cx="57" cy="64" rx="46" ry="14" transform="rotate(-25 57 64)" fill="none" stroke="#FFFFFF" stroke-width="1.5" stroke-opacity="0.5" />
  <ellipse cx="57" cy="64" rx="14" ry="46" transform="rotate(-25 57 64)" fill="none" stroke="#FFFFFF" stroke-width="1.5" stroke-opacity="0.2" />

  <rect x="81" y="16" width="36" height="96" rx="12" fill="url(#sidebarGrad)" filter="url(#shadow)" />
  <rect x="81" y="16" width="36" height="96" rx="12" fill="none" stroke="#FFFFFF" stroke-opacity="0.2" stroke-width="1.5" />
  
  <rect x="92" y="38" width="14" height="14" rx="4" fill="#38BDF8" opacity="0.9" />
  <circle cx="99" cy="68" r="5" fill="#94A3B8" opacity="0.8" />
  <circle cx="99" cy="84" r="5" fill="#94A3B8" opacity="0.8" />

</svg>
